<mxfile host="app.diagrams.net" modified="2024-04-24T12:31:51.845Z" agent="Mozilla/5.0 (Windows NT 10.0; Win64; x64) AppleWebKit/537.36 (KHTML, like Gecko) Chrome/124.0.0.0 Safari/537.36" etag="5LYEgR66lEieFl4BanN1" version="24.2.9" type="device">
  <diagram id="C5RBs43oDa-KdzZeNtuy" name="Page-1">
    <mxGraphModel dx="630" dy="864" grid="1" gridSize="10" guides="1" tooltips="1" connect="1" arrows="1" fold="1" page="1" pageScale="1" pageWidth="827" pageHeight="1169" math="0" shadow="0">
      <root>
        <mxCell id="WIyWlLk6GJQsqaUBKTNV-0" />
        <mxCell id="WIyWlLk6GJQsqaUBKTNV-1" parent="WIyWlLk6GJQsqaUBKTNV-0" />
        <mxCell id="7qF9q4HZdZ3QThShzaHD-16" style="edgeStyle=none;curved=1;rounded=0;orthogonalLoop=1;jettySize=auto;html=1;exitX=0;exitY=1;exitDx=0;exitDy=0;fontSize=12;startSize=8;endSize=8;" edge="1" parent="WIyWlLk6GJQsqaUBKTNV-1" source="WIyWlLk6GJQsqaUBKTNV-3" target="7qF9q4HZdZ3QThShzaHD-17">
          <mxGeometry relative="1" as="geometry">
            <mxPoint x="120" y="160" as="targetPoint" />
          </mxGeometry>
        </mxCell>
        <mxCell id="WIyWlLk6GJQsqaUBKTNV-3" value="&lt;div&gt;Register and Login&lt;/div&gt;" style="rounded=1;whiteSpace=wrap;html=1;fontSize=12;glass=0;strokeWidth=1;shadow=0;" parent="WIyWlLk6GJQsqaUBKTNV-1" vertex="1">
          <mxGeometry x="160" y="80" width="120" height="40" as="geometry" />
        </mxCell>
        <mxCell id="7qF9q4HZdZ3QThShzaHD-21" style="edgeStyle=orthogonalEdgeStyle;rounded=0;orthogonalLoop=1;jettySize=auto;html=1;exitX=0.5;exitY=1;exitDx=0;exitDy=0;fontSize=12;startSize=8;endSize=8;entryX=1;entryY=0.5;entryDx=0;entryDy=0;" edge="1" parent="WIyWlLk6GJQsqaUBKTNV-1" target="7qF9q4HZdZ3QThShzaHD-4">
          <mxGeometry relative="1" as="geometry">
            <mxPoint x="590" y="180" as="targetPoint" />
            <mxPoint x="590" y="120" as="sourcePoint" />
            <Array as="points">
              <mxPoint x="590" y="190" />
            </Array>
          </mxGeometry>
        </mxCell>
        <mxCell id="7qF9q4HZdZ3QThShzaHD-2" value="If user not registered" style="text;html=1;align=center;verticalAlign=middle;resizable=0;points=[];autosize=1;strokeColor=none;fillColor=none;fontSize=16;" vertex="1" parent="WIyWlLk6GJQsqaUBKTNV-1">
          <mxGeometry x="315" y="71" width="170" height="30" as="geometry" />
        </mxCell>
        <mxCell id="7qF9q4HZdZ3QThShzaHD-7" style="edgeStyle=none;curved=1;rounded=0;orthogonalLoop=1;jettySize=auto;html=1;exitX=0.35;exitY=1.067;exitDx=0;exitDy=0;entryX=0.5;entryY=0;entryDx=0;entryDy=0;fontSize=12;startSize=8;endSize=8;exitPerimeter=0;" edge="1" parent="WIyWlLk6GJQsqaUBKTNV-1" source="7qF9q4HZdZ3QThShzaHD-4" target="7qF9q4HZdZ3QThShzaHD-12">
          <mxGeometry relative="1" as="geometry">
            <mxPoint x="295" y="310" as="targetPoint" />
          </mxGeometry>
        </mxCell>
        <mxCell id="7qF9q4HZdZ3QThShzaHD-8" style="edgeStyle=none;curved=1;rounded=0;orthogonalLoop=1;jettySize=auto;html=1;exitX=0.65;exitY=1.05;exitDx=0;exitDy=0;entryX=0.5;entryY=0;entryDx=0;entryDy=0;fontSize=12;startSize=8;endSize=8;exitPerimeter=0;" edge="1" parent="WIyWlLk6GJQsqaUBKTNV-1" source="7qF9q4HZdZ3QThShzaHD-4" target="7qF9q4HZdZ3QThShzaHD-13">
          <mxGeometry relative="1" as="geometry">
            <mxPoint x="400" y="311.25" as="targetPoint" />
          </mxGeometry>
        </mxCell>
        <mxCell id="7qF9q4HZdZ3QThShzaHD-9" style="edgeStyle=none;curved=1;rounded=0;orthogonalLoop=1;jettySize=auto;html=1;exitX=0;exitY=1;exitDx=0;exitDy=0;entryX=0.5;entryY=0;entryDx=0;entryDy=0;fontSize=12;startSize=8;endSize=8;" edge="1" parent="WIyWlLk6GJQsqaUBKTNV-1" target="7qF9q4HZdZ3QThShzaHD-11">
          <mxGeometry relative="1" as="geometry">
            <mxPoint x="350" y="220" as="sourcePoint" />
            <mxPoint x="150" y="312.5" as="targetPoint" />
          </mxGeometry>
        </mxCell>
        <mxCell id="7qF9q4HZdZ3QThShzaHD-15" style="edgeStyle=none;curved=1;rounded=0;orthogonalLoop=1;jettySize=auto;html=1;exitX=1;exitY=1;exitDx=0;exitDy=0;entryX=0.5;entryY=0;entryDx=0;entryDy=0;fontSize=12;startSize=8;endSize=8;" edge="1" parent="WIyWlLk6GJQsqaUBKTNV-1" source="7qF9q4HZdZ3QThShzaHD-4" target="7qF9q4HZdZ3QThShzaHD-14">
          <mxGeometry relative="1" as="geometry" />
        </mxCell>
        <mxCell id="7qF9q4HZdZ3QThShzaHD-4" value="APP" style="rounded=0;whiteSpace=wrap;html=1;" vertex="1" parent="WIyWlLk6GJQsqaUBKTNV-1">
          <mxGeometry x="340" y="160" width="120" height="60" as="geometry" />
        </mxCell>
        <mxCell id="7qF9q4HZdZ3QThShzaHD-11" value="&lt;div&gt;Create&lt;/div&gt;&lt;div&gt;&amp;nbsp;new password&lt;/div&gt;" style="rhombus;whiteSpace=wrap;html=1;shadow=0;fontFamily=Helvetica;fontSize=12;align=center;strokeWidth=1;spacing=6;spacingTop=-4;" vertex="1" parent="WIyWlLk6GJQsqaUBKTNV-1">
          <mxGeometry x="80" y="310" width="130" height="90" as="geometry" />
        </mxCell>
        <mxCell id="7qF9q4HZdZ3QThShzaHD-12" value="Check&amp;nbsp;&amp;nbsp;&lt;div&gt;saved passwords&lt;/div&gt;" style="rhombus;whiteSpace=wrap;html=1;shadow=0;fontFamily=Helvetica;fontSize=12;align=center;strokeWidth=1;spacing=6;spacingTop=-4;" vertex="1" parent="WIyWlLk6GJQsqaUBKTNV-1">
          <mxGeometry x="240" y="310" width="130" height="90" as="geometry" />
        </mxCell>
        <mxCell id="7qF9q4HZdZ3QThShzaHD-13" value="&lt;div&gt;Modify&lt;/div&gt;&lt;div&gt;password&lt;/div&gt;" style="rhombus;whiteSpace=wrap;html=1;shadow=0;fontFamily=Helvetica;fontSize=12;align=center;strokeWidth=1;spacing=6;spacingTop=-4;" vertex="1" parent="WIyWlLk6GJQsqaUBKTNV-1">
          <mxGeometry x="400" y="310" width="130" height="90" as="geometry" />
        </mxCell>
        <mxCell id="7qF9q4HZdZ3QThShzaHD-14" value="Delete&lt;div&gt;password&lt;/div&gt;" style="rhombus;whiteSpace=wrap;html=1;shadow=0;fontFamily=Helvetica;fontSize=12;align=center;strokeWidth=1;spacing=6;spacingTop=-4;" vertex="1" parent="WIyWlLk6GJQsqaUBKTNV-1">
          <mxGeometry x="560" y="310" width="130" height="90" as="geometry" />
        </mxCell>
        <mxCell id="7qF9q4HZdZ3QThShzaHD-19" style="edgeStyle=none;curved=1;rounded=0;orthogonalLoop=1;jettySize=auto;html=1;exitX=1;exitY=0.5;exitDx=0;exitDy=0;entryX=0;entryY=0.5;entryDx=0;entryDy=0;fontSize=12;startSize=8;endSize=8;" edge="1" parent="WIyWlLk6GJQsqaUBKTNV-1" source="7qF9q4HZdZ3QThShzaHD-17" target="7qF9q4HZdZ3QThShzaHD-4">
          <mxGeometry relative="1" as="geometry" />
        </mxCell>
        <mxCell id="7qF9q4HZdZ3QThShzaHD-17" value="Create a DB record" style="rounded=1;whiteSpace=wrap;html=1;" vertex="1" parent="WIyWlLk6GJQsqaUBKTNV-1">
          <mxGeometry x="30" y="150" width="130" height="30" as="geometry" />
        </mxCell>
        <mxCell id="7qF9q4HZdZ3QThShzaHD-36" style="edgeStyle=none;curved=1;rounded=0;orthogonalLoop=1;jettySize=auto;html=1;exitX=0;exitY=0.5;exitDx=0;exitDy=0;entryX=1;entryY=0.5;entryDx=0;entryDy=0;fontSize=12;startSize=8;endSize=8;" edge="1" parent="WIyWlLk6GJQsqaUBKTNV-1" source="7qF9q4HZdZ3QThShzaHD-22" target="WIyWlLk6GJQsqaUBKTNV-3">
          <mxGeometry relative="1" as="geometry" />
        </mxCell>
        <mxCell id="7qF9q4HZdZ3QThShzaHD-22" value="Login" style="rounded=1;whiteSpace=wrap;html=1;fontSize=12;glass=0;strokeWidth=1;shadow=0;" vertex="1" parent="WIyWlLk6GJQsqaUBKTNV-1">
          <mxGeometry x="530" y="80" width="120" height="40" as="geometry" />
        </mxCell>
        <mxCell id="7qF9q4HZdZ3QThShzaHD-27" style="edgeStyle=none;curved=1;rounded=0;orthogonalLoop=1;jettySize=auto;html=1;exitX=0.5;exitY=0;exitDx=0;exitDy=0;entryX=0.5;entryY=1;entryDx=0;entryDy=0;fontSize=12;startSize=8;endSize=8;" edge="1" parent="WIyWlLk6GJQsqaUBKTNV-1" source="7qF9q4HZdZ3QThShzaHD-23" target="7qF9q4HZdZ3QThShzaHD-11">
          <mxGeometry relative="1" as="geometry" />
        </mxCell>
        <mxCell id="7qF9q4HZdZ3QThShzaHD-23" value="Create" style="text;html=1;align=center;verticalAlign=middle;whiteSpace=wrap;rounded=0;fontSize=16;" vertex="1" parent="WIyWlLk6GJQsqaUBKTNV-1">
          <mxGeometry x="115" y="420" width="60" height="30" as="geometry" />
        </mxCell>
        <mxCell id="7qF9q4HZdZ3QThShzaHD-28" style="edgeStyle=none;curved=1;rounded=0;orthogonalLoop=1;jettySize=auto;html=1;entryX=0.5;entryY=1;entryDx=0;entryDy=0;fontSize=12;startSize=8;endSize=8;" edge="1" parent="WIyWlLk6GJQsqaUBKTNV-1" source="7qF9q4HZdZ3QThShzaHD-24" target="7qF9q4HZdZ3QThShzaHD-12">
          <mxGeometry relative="1" as="geometry" />
        </mxCell>
        <mxCell id="7qF9q4HZdZ3QThShzaHD-24" value="Read" style="text;html=1;align=center;verticalAlign=middle;whiteSpace=wrap;rounded=0;fontSize=16;" vertex="1" parent="WIyWlLk6GJQsqaUBKTNV-1">
          <mxGeometry x="275" y="420" width="60" height="30" as="geometry" />
        </mxCell>
        <mxCell id="7qF9q4HZdZ3QThShzaHD-29" style="edgeStyle=none;curved=1;rounded=0;orthogonalLoop=1;jettySize=auto;html=1;entryX=0.5;entryY=1;entryDx=0;entryDy=0;fontSize=12;startSize=8;endSize=8;" edge="1" parent="WIyWlLk6GJQsqaUBKTNV-1" source="7qF9q4HZdZ3QThShzaHD-25" target="7qF9q4HZdZ3QThShzaHD-13">
          <mxGeometry relative="1" as="geometry" />
        </mxCell>
        <mxCell id="7qF9q4HZdZ3QThShzaHD-25" value="Update" style="text;html=1;align=center;verticalAlign=middle;whiteSpace=wrap;rounded=0;fontSize=16;" vertex="1" parent="WIyWlLk6GJQsqaUBKTNV-1">
          <mxGeometry x="435" y="420" width="60" height="30" as="geometry" />
        </mxCell>
        <mxCell id="7qF9q4HZdZ3QThShzaHD-30" style="edgeStyle=none;curved=1;rounded=0;orthogonalLoop=1;jettySize=auto;html=1;exitX=0.5;exitY=0;exitDx=0;exitDy=0;entryX=0.5;entryY=1;entryDx=0;entryDy=0;fontSize=12;startSize=8;endSize=8;" edge="1" parent="WIyWlLk6GJQsqaUBKTNV-1" source="7qF9q4HZdZ3QThShzaHD-26" target="7qF9q4HZdZ3QThShzaHD-14">
          <mxGeometry relative="1" as="geometry" />
        </mxCell>
        <mxCell id="7qF9q4HZdZ3QThShzaHD-26" value="Delete" style="text;html=1;align=center;verticalAlign=middle;whiteSpace=wrap;rounded=0;fontSize=16;" vertex="1" parent="WIyWlLk6GJQsqaUBKTNV-1">
          <mxGeometry x="595" y="420" width="60" height="30" as="geometry" />
        </mxCell>
        <mxCell id="7qF9q4HZdZ3QThShzaHD-32" style="edgeStyle=none;curved=1;rounded=0;orthogonalLoop=1;jettySize=auto;html=1;exitX=0;exitY=0;exitDx=0;exitDy=0;entryX=1;entryY=0.75;entryDx=0;entryDy=0;fontSize=12;startSize=8;endSize=8;" edge="1" parent="WIyWlLk6GJQsqaUBKTNV-1" source="7qF9q4HZdZ3QThShzaHD-31" target="7qF9q4HZdZ3QThShzaHD-23">
          <mxGeometry relative="1" as="geometry" />
        </mxCell>
        <mxCell id="7qF9q4HZdZ3QThShzaHD-33" style="edgeStyle=none;curved=1;rounded=0;orthogonalLoop=1;jettySize=auto;html=1;exitX=0.25;exitY=0;exitDx=0;exitDy=0;entryX=0.5;entryY=1;entryDx=0;entryDy=0;fontSize=12;startSize=8;endSize=8;" edge="1" parent="WIyWlLk6GJQsqaUBKTNV-1" source="7qF9q4HZdZ3QThShzaHD-31" target="7qF9q4HZdZ3QThShzaHD-24">
          <mxGeometry relative="1" as="geometry" />
        </mxCell>
        <mxCell id="7qF9q4HZdZ3QThShzaHD-34" style="edgeStyle=none;curved=1;rounded=0;orthogonalLoop=1;jettySize=auto;html=1;exitX=0.75;exitY=0;exitDx=0;exitDy=0;entryX=0.5;entryY=1;entryDx=0;entryDy=0;fontSize=12;startSize=8;endSize=8;" edge="1" parent="WIyWlLk6GJQsqaUBKTNV-1" source="7qF9q4HZdZ3QThShzaHD-31" target="7qF9q4HZdZ3QThShzaHD-25">
          <mxGeometry relative="1" as="geometry" />
        </mxCell>
        <mxCell id="7qF9q4HZdZ3QThShzaHD-35" style="edgeStyle=none;curved=1;rounded=0;orthogonalLoop=1;jettySize=auto;html=1;exitX=1;exitY=0;exitDx=0;exitDy=0;entryX=0;entryY=0.75;entryDx=0;entryDy=0;fontSize=12;startSize=8;endSize=8;" edge="1" parent="WIyWlLk6GJQsqaUBKTNV-1" source="7qF9q4HZdZ3QThShzaHD-31" target="7qF9q4HZdZ3QThShzaHD-26">
          <mxGeometry relative="1" as="geometry" />
        </mxCell>
        <mxCell id="7qF9q4HZdZ3QThShzaHD-31" value="C R U D&amp;nbsp;" style="rounded=1;whiteSpace=wrap;html=1;" vertex="1" parent="WIyWlLk6GJQsqaUBKTNV-1">
          <mxGeometry x="290" y="480" width="190" height="30" as="geometry" />
        </mxCell>
      </root>
    </mxGraphModel>
  </diagram>
</mxfile>
